<svg width="107" height="149" viewBox="0 0 107 149" fill="none" xmlns="http://www.w3.org/2000/svg">
<mask id="path-1-outside-1_1_8" maskUnits="userSpaceOnUse" x="-8.53102" y="-3.87467" width="184.716" height="192.851" fill="black">
<rect fill="white" x="-8.53102" y="-3.87467" width="184.716" height="192.851"/>
<path d="M97.9365 7.96224C95.907 10.3809 95.3862 18.9669 96.3741 33.7202C98.4276 27.4229 99.8241 21.5768 100.564 16.182C101.303 10.7871 101.182 7.67826 100.202 6.85549C99.6789 6.41668 98.9238 6.7856 97.9365 7.96224ZM65.8587 43.2041C65.4011 42.8201 64.9255 42.9223 64.4318 43.5106C61.6893 46.7791 62.9192 54.6062 68.1216 66.9919C68.994 61.0403 69.2461 55.9606 68.878 51.7529C68.4993 47.4249 67.4929 44.5753 65.8587 43.2041ZM7.64029 131.703C11.6932 135.104 17.629 135.796 25.4479 133.779C33.2667 131.762 40.1381 127.224 46.0621 120.164C51.986 113.104 56.8494 104.653 60.6522 94.8112C51.5606 91.9724 42.5031 91.9471 33.4798 94.7353C24.4565 97.5236 17.0103 102.415 11.1412 109.409C6.97251 114.378 4.72322 118.784 4.39332 122.629C3.9432 126.484 5.02553 129.509 7.64029 131.703ZM79.012 103.199C79.6108 103.813 79.7457 104.316 79.4166 104.708C79.0875 105.1 78.5634 104.995 77.8443 104.391C73.2031 100.497 68.0671 97.5241 62.4363 95.4728C58.4351 105.817 53.2532 114.78 46.8904 122.363C40.5277 129.946 33.2291 134.794 24.9948 136.908C16.7056 139.087 10.3711 138.339 5.99136 134.664C2.85364 132.031 1.56057 128.328 2.11213 123.555C2.6637 118.782 5.76432 113.03 11.414 106.297C17.0637 99.5635 24.6184 94.8746 34.0783 92.2299C43.5381 89.5852 52.6937 89.6927 61.5448 92.5525C63.9719 85.6775 65.8579 78.8497 67.2029 72.0693C63.8639 64.3662 61.8048 57.7927 61.0257 52.349C60.3015 46.8399 61.3106 42.4511 64.0532 39.1827C64.4371 38.7251 64.9623 38.4974 65.6288 38.4997C66.3501 38.4366 66.9069 38.5696 67.2991 38.8987C69.3909 40.6539 70.6292 44.4221 71.0138 50.2032C71.3879 55.8641 70.9118 62.5382 69.5856 70.2255C71.917 75.4123 75.9162 83.3908 81.5829 94.1611C87.2497 104.931 91.8506 114.25 95.3858 122.118C98.9104 129.866 100.873 136.023 101.272 140.592L101.402 141.035L101.731 140.643C103.168 135.611 103.5 127.98 102.726 117.751C101.953 107.522 100.494 94.6568 98.3504 79.1567C96.1964 63.5363 94.8208 51.9666 94.2235 44.4475C93.5292 46.2042 92.357 48.7296 90.707 52.0236C90.2682 52.5466 89.8853 52.6709 89.5585 52.3967C88.9048 51.8482 89.0231 50.7778 89.9135 49.1857C91.7387 45.8158 93.0649 42.9741 93.8922 40.6606C92.5933 20.9678 94.1927 8.4412 98.6905 3.08094C100.281 1.18524 101.501 0.593915 102.351 1.30698C103.855 2.56856 104.108 6.84689 103.111 14.142C102.048 21.3822 99.9289 29.3509 96.7527 38.0481C97.2448 44.3649 98.6632 57.8086 101.008 78.379C103.287 98.8946 104.643 114.736 105.075 125.904C105.442 137.017 104.528 143.881 102.334 146.495C102.224 146.626 101.934 146.773 101.464 146.935C100.993 147.097 100.627 147.069 100.366 146.849C100.17 146.685 99.8528 145.138 99.4148 142.208C98.2329 136.315 95.8902 129.615 92.3866 122.108C88.9379 114.535 84.6458 105.977 79.5102 96.4321C74.4295 86.8219 70.8098 79.7188 68.6512 75.1226C67.3084 81.2365 65.5618 87.2343 63.4113 93.1161C68.0382 94.7707 72.2474 97.1886 76.0388 100.37C76.6925 100.919 77.3515 101.527 78.0157 102.196L79.012 103.199Z"/>
</mask>
<path d="M97.9365 7.96224C95.907 10.3809 95.3862 18.9669 96.3741 33.7202C98.4276 27.4229 99.8241 21.5768 100.564 16.182C101.303 10.7871 101.182 7.67826 100.202 6.85549C99.6789 6.41668 98.9238 6.7856 97.9365 7.96224ZM65.8587 43.2041C65.4011 42.8201 64.9255 42.9223 64.4318 43.5106C61.6893 46.7791 62.9192 54.6062 68.1216 66.9919C68.994 61.0403 69.2461 55.9606 68.878 51.7529C68.4993 47.4249 67.4929 44.5753 65.8587 43.2041ZM7.64029 131.703C11.6932 135.104 17.629 135.796 25.4479 133.779C33.2667 131.762 40.1381 127.224 46.0621 120.164C51.986 113.104 56.8494 104.653 60.6522 94.8112C51.5606 91.9724 42.5031 91.9471 33.4798 94.7353C24.4565 97.5236 17.0103 102.415 11.1412 109.409C6.97251 114.378 4.72322 118.784 4.39332 122.629C3.9432 126.484 5.02553 129.509 7.64029 131.703ZM79.012 103.199C79.6108 103.813 79.7457 104.316 79.4166 104.708C79.0875 105.1 78.5634 104.995 77.8443 104.391C73.2031 100.497 68.0671 97.5241 62.4363 95.4728C58.4351 105.817 53.2532 114.78 46.8904 122.363C40.5277 129.946 33.2291 134.794 24.9948 136.908C16.7056 139.087 10.3711 138.339 5.99136 134.664C2.85364 132.031 1.56057 128.328 2.11213 123.555C2.6637 118.782 5.76432 113.03 11.414 106.297C17.0637 99.5635 24.6184 94.8746 34.0783 92.2299C43.5381 89.5852 52.6937 89.6927 61.5448 92.5525C63.9719 85.6775 65.8579 78.8497 67.2029 72.0693C63.8639 64.3662 61.8048 57.7927 61.0257 52.349C60.3015 46.8399 61.3106 42.4511 64.0532 39.1827C64.4371 38.7251 64.9623 38.4974 65.6288 38.4997C66.3501 38.4366 66.9069 38.5696 67.2991 38.8987C69.3909 40.6539 70.6292 44.4221 71.0138 50.2032C71.3879 55.8641 70.9118 62.5382 69.5856 70.2255C71.917 75.4123 75.9162 83.3908 81.5829 94.1611C87.2497 104.931 91.8506 114.25 95.3858 122.118C98.9104 129.866 100.873 136.023 101.272 140.592L101.402 141.035L101.731 140.643C103.168 135.611 103.5 127.98 102.726 117.751C101.953 107.522 100.494 94.6568 98.3504 79.1567C96.1964 63.5363 94.8208 51.9666 94.2235 44.4475C93.5292 46.2042 92.357 48.7296 90.707 52.0236C90.2682 52.5466 89.8853 52.6709 89.5585 52.3967C88.9048 51.8482 89.0231 50.7778 89.9135 49.1857C91.7387 45.8158 93.0649 42.9741 93.8922 40.6606C92.5933 20.9678 94.1927 8.4412 98.6905 3.08094C100.281 1.18524 101.501 0.593915 102.351 1.30698C103.855 2.56856 104.108 6.84689 103.111 14.142C102.048 21.3822 99.9289 29.3509 96.7527 38.0481C97.2448 44.3649 98.6632 57.8086 101.008 78.379C103.287 98.8946 104.643 114.736 105.075 125.904C105.442 137.017 104.528 143.881 102.334 146.495C102.224 146.626 101.934 146.773 101.464 146.935C100.993 147.097 100.627 147.069 100.366 146.849C100.17 146.685 99.8528 145.138 99.4148 142.208C98.2329 136.315 95.8902 129.615 92.3866 122.108C88.9379 114.535 84.6458 105.977 79.5102 96.4321C74.4295 86.8219 70.8098 79.7188 68.6512 75.1226C67.3084 81.2365 65.5618 87.2343 63.4113 93.1161C68.0382 94.7707 72.2474 97.1886 76.0388 100.37C76.6925 100.919 77.3515 101.527 78.0157 102.196L79.012 103.199Z" fill="#3781E5"/>
<path d="M96.3741 33.7202L95.3763 33.787L97.3248 34.0302L96.3741 33.7202ZM100.564 16.182L99.5728 16.0462L99.5728 16.0462L100.564 16.182ZM68.1216 66.9919L67.1996 67.3792L68.5902 70.6899L69.111 67.1369L68.1216 66.9919ZM68.878 51.7529L69.8742 51.6657L68.878 51.7529ZM25.4479 133.779L25.6976 134.747L25.4479 133.779ZM60.6522 94.8112L61.585 95.1716L61.97 94.175L60.9502 93.8566L60.6522 94.8112ZM33.4798 94.7353L33.775 95.6908L33.4798 94.7353ZM4.39332 122.629L5.38657 122.745L5.38835 122.729L5.38966 122.714L4.39332 122.629ZM79.012 103.199L79.7278 102.501L79.7215 102.494L79.012 103.199ZM62.4363 95.4728L62.7786 94.5332L61.8574 94.1976L61.5037 95.112L62.4363 95.4728ZM24.9948 136.908L24.7462 135.939L24.7405 135.941L24.9948 136.908ZM2.11213 123.555L1.11874 123.44L2.11213 123.555ZM34.0783 92.2299L33.809 91.2668L34.0783 92.2299ZM61.5448 92.5525L61.2374 93.5041L62.1637 93.8034L62.4878 92.8854L61.5448 92.5525ZM67.2029 72.0693L68.1838 72.2639L68.2445 71.9579L68.1205 71.6716L67.2029 72.0693ZM61.0257 52.349L60.0342 52.4794L60.0358 52.4907L61.0257 52.349ZM65.6288 38.4997L65.6254 39.4997L65.6708 39.4998L65.716 39.4959L65.6288 38.4997ZM71.0138 50.2032L72.0116 50.1373L72.0116 50.1368L71.0138 50.2032ZM69.5856 70.2255L68.6001 70.0555L68.5482 70.3567L68.6735 70.6355L69.5856 70.2255ZM81.5829 94.1611L80.6979 94.6267L81.5829 94.1611ZM95.3858 122.118L94.4736 122.528L94.4755 122.532L95.3858 122.118ZM101.272 140.592L100.276 140.679L100.285 140.778L100.312 140.873L101.272 140.592ZM101.402 141.035L100.442 141.316L100.967 143.109L102.168 141.678L101.402 141.035ZM101.731 140.643L102.497 141.285L102.634 141.122L102.692 140.917L101.731 140.643ZM102.726 117.751L101.729 117.826L102.726 117.751ZM98.3504 79.1567L97.3598 79.2933L97.3598 79.2937L98.3504 79.1567ZM94.2235 44.4475L95.2204 44.3684L93.2935 44.08L94.2235 44.4475ZM90.707 52.0236L91.473 52.6664L91.5485 52.5765L91.6011 52.4715L90.707 52.0236ZM89.9135 49.1857L90.7864 49.6738L90.7929 49.6619L89.9135 49.1857ZM93.8922 40.6606L94.8338 40.9973L94.9037 40.8019L94.89 40.5948L93.8922 40.6606ZM103.111 14.142L104.1 14.2872L104.102 14.2774L103.111 14.142ZM96.7527 38.0481L95.8134 37.7051L95.7388 37.9091L95.7557 38.1258L96.7527 38.0481ZM101.008 78.379L102.002 78.2686L102.002 78.2658L101.008 78.379ZM105.075 125.904L106.075 125.871L106.074 125.865L105.075 125.904ZM99.4148 142.208L100.404 142.06L100.4 142.036L100.395 142.011L99.4148 142.208ZM92.3866 122.108L91.4765 122.522L91.4805 122.531L92.3866 122.108ZM79.5102 96.4321L78.6261 96.8995L78.6296 96.9059L79.5102 96.4321ZM68.6512 75.1226L69.5563 74.6975L68.3056 72.0344L67.6745 74.9081L68.6512 75.1226ZM63.4113 93.1161L62.4721 92.7727L62.1262 93.7186L63.0745 94.0577L63.4113 93.1161ZM78.0157 102.196L78.7252 101.491L78.0157 102.196ZM97.9365 7.96224L97.1704 7.31946C96.5106 8.10579 96.0535 9.2809 95.723 10.7068C95.387 12.157 95.1576 13.9786 95.0256 16.1552C94.7614 20.5101 94.8812 26.3934 95.3763 33.787L96.3741 33.7202L97.3718 33.6533C96.879 26.2936 96.7653 20.5073 97.0219 16.2763C97.1503 14.1598 97.3699 12.4594 97.6714 11.1584C97.9785 9.83316 98.3476 9.02802 98.7025 8.60503L97.9365 7.96224ZM96.3741 33.7202L97.3248 34.0302C99.3931 27.6879 100.805 21.7828 101.554 16.3177L100.564 16.182L99.5728 16.0462C98.843 21.3708 97.4622 27.1579 95.4233 33.4101L96.3741 33.7202ZM100.564 16.182L101.554 16.3177C101.927 13.5985 102.091 11.4058 102.027 9.76543C101.995 8.94627 101.906 8.22656 101.739 7.63152C101.577 7.05202 101.311 6.48073 100.845 6.08945L100.202 6.85549L99.5591 7.62154C99.583 7.64164 99.7001 7.76748 99.8131 8.17089C99.9217 8.55874 99.9999 9.10769 100.028 9.84294C100.085 11.3114 99.9395 13.3705 99.5728 16.0462L100.564 16.182ZM100.202 6.85549L100.845 6.08945C100.56 5.85054 100.211 5.70069 99.8207 5.67933C99.4455 5.6588 99.0999 5.76017 98.8043 5.90457C98.2362 6.18211 97.6918 6.69814 97.1704 7.31946L97.9365 7.96224L98.7025 8.60503C99.1685 8.0497 99.4952 7.79295 99.6823 7.70158C99.7643 7.66151 99.7673 7.67939 99.7115 7.67634C99.6404 7.67245 99.5823 7.64105 99.5591 7.62154L100.202 6.85549ZM65.8587 43.2041L66.5015 42.438C66.096 42.0978 65.5571 41.8843 64.9487 42.015C64.3995 42.133 63.9782 42.4955 63.6658 42.8678L64.4318 43.5106L65.1979 44.1534C65.2817 44.0535 65.3433 44.0003 65.3789 43.975C65.4132 43.9505 65.4093 43.9617 65.3688 43.9704C65.3484 43.9748 65.3233 43.9775 65.2952 43.9764C65.2672 43.9752 65.2426 43.9705 65.2231 43.9646C65.1843 43.9529 65.1825 43.9421 65.2159 43.9701L65.8587 43.2041ZM64.4318 43.5106L63.6658 42.8678C62.0004 44.8526 61.685 48.0133 62.3094 51.9875C62.9426 56.017 64.5855 61.1557 67.1996 67.3792L68.1216 66.9919L69.0435 66.6047C66.4552 60.4424 64.8819 55.4747 64.2852 51.677C63.6798 47.8242 64.1207 45.4371 65.1979 44.1534L64.4318 43.5106ZM68.1216 66.9919L69.111 67.1369C69.9903 61.138 70.2513 55.9758 69.8742 51.6657L68.878 51.7529L67.8818 51.84C68.241 55.9454 67.9976 60.9426 67.1321 66.8469L68.1216 66.9919ZM68.878 51.7529L69.8742 51.6657C69.493 47.309 68.4674 44.0876 66.5015 42.438L65.8587 43.2041L65.2159 43.9701C66.5185 45.0631 67.5057 47.5409 67.8818 51.84L68.878 51.7529ZM7.64029 131.703L6.9975 132.469C11.4075 136.169 17.7369 136.801 25.6976 134.747L25.4479 133.779L25.1981 132.811C17.5212 134.791 11.9789 134.038 8.28308 130.937L7.64029 131.703ZM25.4479 133.779L25.6976 134.747C33.746 132.672 40.7899 128.003 46.8281 120.807L46.0621 120.164L45.296 119.522C39.4864 126.445 32.7874 130.853 25.1981 132.811L25.4479 133.779ZM46.0621 120.164L46.8281 120.807C52.8322 113.652 57.7481 105.102 61.585 95.1716L60.6522 94.8112L59.7194 94.4508C55.9506 104.205 51.1398 112.557 45.296 119.522L46.0621 120.164ZM60.6522 94.8112L60.9502 93.8566C51.6673 90.9581 42.4029 90.9314 33.1846 93.7799L33.4798 94.7353L33.775 95.6908C42.6033 92.9628 51.4539 92.9867 60.3541 95.7657L60.6522 94.8112ZM33.4798 94.7353L33.1846 93.7799C23.9842 96.6229 16.3723 101.62 10.3752 108.767L11.1412 109.409L11.9072 110.052C17.6483 103.21 24.9288 98.4243 33.775 95.6908L33.4798 94.7353ZM11.1412 109.409L10.3752 108.767C6.15525 113.796 3.75283 118.396 3.39698 122.543L4.39332 122.629L5.38966 122.714C5.69361 119.172 7.78978 114.959 11.9072 110.052L11.1412 109.409ZM4.39332 122.629L3.40006 122.513C2.9172 126.649 4.08612 130.026 6.9975 132.469L7.64029 131.703L8.28308 130.937C5.96493 128.992 4.96921 126.319 5.38657 122.745L4.39332 122.629ZM79.012 103.199L78.2962 103.897C78.413 104.017 78.49 104.114 78.5383 104.188C78.5872 104.262 78.5968 104.297 78.5964 104.296C78.5945 104.289 78.5853 104.245 78.5991 104.181C78.6132 104.117 78.641 104.077 78.6505 104.065L79.4166 104.708L80.1826 105.351C80.5612 104.9 80.6783 104.338 80.5281 103.778C80.3964 103.286 80.078 102.86 79.7278 102.501L79.012 103.199ZM79.4166 104.708L78.6505 104.065C78.6699 104.042 78.7239 103.992 78.8147 103.961C78.903 103.931 78.9658 103.941 78.9742 103.943C78.9764 103.943 78.9345 103.934 78.8424 103.882C78.7524 103.831 78.6342 103.749 78.4871 103.625L77.8443 104.391L77.2015 105.157C77.6056 105.497 78.0719 105.801 78.5792 105.903C78.8496 105.958 79.1501 105.958 79.4517 105.857C79.7558 105.755 79.9987 105.57 80.1826 105.351L79.4166 104.708ZM77.8443 104.391L78.4871 103.625C73.7576 99.6568 68.5201 96.6248 62.7786 94.5332L62.4363 95.4728L62.094 96.4124C67.6141 98.4233 72.6486 101.337 77.2015 105.157L77.8443 104.391ZM62.4363 95.4728L61.5037 95.112C57.5374 105.366 52.4085 114.231 46.1244 121.72L46.8904 122.363L47.6565 123.006C54.0978 115.329 59.3329 106.268 63.369 95.8335L62.4363 95.4728ZM46.8904 122.363L46.1244 121.72C39.8731 129.17 32.7464 133.886 24.7462 135.939L24.9948 136.908L25.2434 137.876C33.7118 135.703 41.1823 130.722 47.6565 123.006L46.8904 122.363ZM24.9948 136.908L24.7405 135.941C16.6011 138.08 10.6588 137.275 6.63415 133.898L5.99136 134.664L5.34857 135.43C10.0834 139.403 16.81 140.093 25.249 137.875L24.9948 136.908ZM5.99136 134.664L6.63415 133.898C3.80159 131.521 2.5848 128.176 3.10552 123.67L2.11213 123.555L1.11874 123.44C0.536333 128.48 1.9057 132.541 5.34857 135.43L5.99136 134.664ZM2.11213 123.555L3.10552 123.67C3.62266 119.195 6.5663 113.63 12.18 106.939L11.414 106.297L10.6479 105.654C4.96233 112.43 1.70473 118.37 1.11874 123.44L2.11213 123.555ZM11.414 106.297L12.18 106.939C17.6852 100.379 25.058 95.7901 34.3475 93.193L34.0783 92.2299L33.809 91.2668C24.1788 93.9592 16.4421 98.7485 10.6479 105.654L11.414 106.297ZM34.0783 92.2299L34.3475 93.193C43.6294 90.598 52.5839 90.7081 61.2374 93.5041L61.5448 92.5525L61.8523 91.601C52.8035 88.6773 43.4469 88.5723 33.809 91.2668L34.0783 92.2299ZM61.5448 92.5525L62.4878 92.8854C64.9299 85.9677 66.829 79.0937 68.1838 72.2639L67.2029 72.0693L66.2221 71.8748C64.8868 78.6057 63.0138 85.3873 60.6019 92.2197L61.5448 92.5525ZM67.2029 72.0693L68.1205 71.6716C64.8003 64.0121 62.7774 57.5295 62.0156 52.2073L61.0257 52.349L60.0358 52.4907C60.8323 58.056 62.9275 64.7203 66.2854 72.467L67.2029 72.0693ZM61.0257 52.349L62.0172 52.2187C61.3178 46.8987 62.3073 42.8191 64.8192 39.8255L64.0532 39.1827L63.2871 38.5399C60.3139 42.0832 59.2851 46.7811 60.0342 52.4794L61.0257 52.349ZM64.0532 39.1827L64.8192 39.8255C64.9888 39.6233 65.217 39.4983 65.6254 39.4997L65.6288 38.4997L65.6322 37.4997C64.7077 37.4966 63.8854 37.8269 63.2871 38.5399L64.0532 39.1827ZM65.6288 38.4997L65.716 39.4959C66.2837 39.4462 66.5389 39.5662 66.6563 39.6647L67.2991 38.8987L67.9419 38.1326C67.2749 37.5729 66.4165 37.427 65.5416 37.5035L65.6288 38.4997ZM67.2991 38.8987L66.6563 39.6647C67.5089 40.3802 68.2608 41.5708 68.8466 43.3534C69.4306 45.1306 69.8269 47.428 70.016 50.2696L71.0138 50.2032L72.0116 50.1368C71.816 47.1973 71.4009 44.7201 70.7467 42.7291C70.0942 40.7436 69.1811 39.1725 67.9419 38.1326L67.2991 38.8987ZM71.0138 50.2032L70.016 50.2691C70.3833 55.828 69.9176 62.4192 68.6001 70.0555L69.5856 70.2255L70.571 70.3955C71.9061 62.6571 72.3925 55.9002 72.0116 50.1373L71.0138 50.2032ZM69.5856 70.2255L68.6735 70.6355C71.0184 75.8523 75.0298 83.8538 80.6979 94.6267L81.5829 94.1611L82.4679 93.6955C76.8025 82.9277 72.8156 74.9723 70.4977 69.8155L69.5856 70.2255ZM81.5829 94.1611L80.6979 94.6267C86.3586 105.385 90.9496 114.685 94.4736 122.528L95.3858 122.118L96.2979 121.708C92.7516 113.816 88.1407 104.477 82.4679 93.6955L81.5829 94.1611ZM95.3858 122.118L94.4755 122.532C97.9862 130.249 99.8914 136.283 100.276 140.679L101.272 140.592L102.268 140.505C101.854 135.764 99.8345 129.482 96.296 121.704L95.3858 122.118ZM101.272 140.592L100.312 140.873L100.442 141.316L101.402 141.035L102.362 140.754L102.232 140.311L101.272 140.592ZM101.402 141.035L102.168 141.678L102.497 141.285L101.731 140.643L100.965 140L100.636 140.392L101.402 141.035ZM101.731 140.643L102.692 140.917C104.18 135.708 104.499 127.932 103.724 117.675L102.726 117.751L101.729 117.826C102.501 128.028 102.156 135.513 100.769 140.368L101.731 140.643ZM102.726 117.751L103.724 117.675C102.948 107.418 101.486 94.5309 99.341 79.0197L98.3504 79.1567L97.3598 79.2937C99.5018 94.7828 100.958 107.625 101.729 117.826L102.726 117.751ZM98.3504 79.1567L99.341 79.0201C97.1875 63.4029 95.8152 51.857 95.2204 44.3684L94.2235 44.4475L93.2266 44.5267C93.8263 52.0761 95.2053 63.6696 97.3598 79.2933L98.3504 79.1567ZM94.2235 44.4475L93.2935 44.08C92.6158 45.7946 91.4596 48.2883 89.8129 51.5757L90.707 52.0236L91.6011 52.4715C93.2544 49.1709 94.4426 46.6139 95.1535 44.8151L94.2235 44.4475ZM90.707 52.0236L89.9409 51.3808C89.8627 51.474 89.805 51.5276 89.7695 51.5556C89.7332 51.5842 89.7373 51.5725 89.7818 51.558C89.8339 51.5411 89.9199 51.5279 90.0208 51.5492C90.1188 51.5699 90.1794 51.6123 90.2013 51.6306L89.5585 52.3967L88.9157 53.1627C89.3241 53.5054 89.8573 53.6364 90.3997 53.4602C90.8542 53.3125 91.2075 52.9829 91.473 52.6664L90.707 52.0236ZM89.5585 52.3967L90.2013 51.6306C90.1981 51.6279 90.1176 51.5936 90.1509 51.2924C90.1886 50.9516 90.3673 50.423 90.7863 49.6738L89.9135 49.1857L89.0408 48.6976C88.5694 49.5405 88.2437 50.3432 88.163 51.0726C88.078 51.8418 88.2652 52.6169 88.9157 53.1627L89.5585 52.3967ZM89.9135 49.1857L90.7929 49.6619C92.6305 46.269 93.9826 43.3776 94.8338 40.9973L93.8922 40.6606L92.9506 40.3239C92.1472 42.5705 90.8469 45.3625 89.0342 48.7094L89.9135 49.1857ZM93.8922 40.6606L94.89 40.5948C94.2427 30.7811 94.3212 22.797 95.1095 16.6227C95.9019 10.4173 97.3951 6.18047 99.4566 3.72373L98.6905 3.08094L97.9245 2.43815C95.4881 5.34168 93.9328 10.0483 93.1256 16.3694C92.3146 22.7216 92.2427 30.8473 92.8943 40.7264L93.8922 40.6606ZM98.6905 3.08094L99.4566 3.72373C100.224 2.80927 100.817 2.31809 101.235 2.11557C101.432 2.02001 101.542 2.01247 101.586 2.01502C101.614 2.01671 101.648 2.02266 101.708 2.07302L102.351 1.30698L102.994 0.540934C102.629 0.234762 102.192 0.0472258 101.703 0.0184751C101.229 -0.00939991 100.776 0.115675 100.363 0.315772C99.5603 0.704574 98.7478 1.4569 97.9245 2.43815L98.6905 3.08094ZM102.351 1.30698L101.708 2.07302C101.885 2.22111 102.103 2.5279 102.291 3.12107C102.477 3.70699 102.61 4.49887 102.67 5.52098C102.791 7.56526 102.615 10.3846 102.12 14.0066L103.111 14.142L104.102 14.2774C104.604 10.6042 104.799 7.63691 104.667 5.40284C104.601 4.28579 104.451 3.3156 104.198 2.51654C103.947 1.72473 103.569 1.02364 102.994 0.540934L102.351 1.30698ZM103.111 14.142L102.121 13.9968C101.071 21.1546 98.972 29.056 95.8134 37.7051L96.7527 38.0481L97.692 38.3911C100.886 29.6459 103.026 21.6099 104.1 14.2872L103.111 14.142ZM96.7527 38.0481L95.7557 38.1258C96.2494 44.4637 97.6701 57.9259 100.014 78.4923L101.008 78.379L102.002 78.2658C99.6563 57.6912 98.2401 44.2661 97.7497 37.9704L96.7527 38.0481ZM101.008 78.379L100.014 78.4894C102.293 98.9975 103.645 114.811 104.076 125.943L105.075 125.904L106.074 125.865C105.641 114.661 104.282 98.7917 102.002 78.2686L101.008 78.379ZM105.075 125.904L104.076 125.937C104.258 131.467 104.12 135.9 103.673 139.255C103.221 142.656 102.47 144.778 101.568 145.853L102.334 146.495L103.1 147.138C104.392 145.599 105.195 142.98 105.656 139.518C106.123 136.009 106.259 131.454 106.075 125.871L105.075 125.904ZM102.334 146.495L101.568 145.853C101.594 145.822 101.615 145.802 101.628 145.791C101.634 145.785 101.639 145.781 101.643 145.779C101.646 145.776 101.648 145.775 101.648 145.775C101.648 145.775 101.647 145.776 101.644 145.777C101.641 145.779 101.637 145.782 101.631 145.785C101.62 145.791 101.604 145.8 101.583 145.811C101.494 145.856 101.35 145.916 101.138 145.99L101.464 146.935L101.79 147.88C102.048 147.791 102.284 147.697 102.485 147.596C102.661 147.507 102.911 147.363 103.1 147.138L102.334 146.495ZM101.464 146.935L101.138 145.99C100.989 146.041 100.921 146.039 100.914 146.038C100.914 146.038 100.927 146.039 100.949 146.048C100.972 146.057 100.993 146.07 101.009 146.083L100.366 146.849L99.7232 147.615C100.365 148.154 101.153 148.1 101.79 147.88L101.464 146.935ZM100.366 146.849L101.009 146.083C101.174 146.222 101.224 146.369 101.201 146.317C101.197 146.308 101.18 146.267 101.154 146.179C101.103 146.008 101.038 145.741 100.961 145.365C100.808 144.618 100.622 143.52 100.404 142.06L99.4148 142.208L98.4258 142.356C98.6456 143.826 98.8375 144.966 99.0015 145.766C99.0829 146.164 99.1616 146.498 99.2383 146.754C99.2763 146.88 99.3203 147.01 99.3727 147.128C99.4064 147.204 99.5088 147.435 99.7232 147.615L100.366 146.849ZM99.4148 142.208L100.395 142.011C99.1931 136.017 96.8184 129.239 93.2928 121.685L92.3866 122.108L91.4805 122.531C94.962 129.991 97.2728 136.613 98.4343 142.405L99.4148 142.208ZM92.3866 122.108L93.2967 121.693C89.8366 114.096 85.5339 105.517 80.3908 95.9583L79.5102 96.4321L78.6296 96.9059C83.7576 106.437 88.0392 114.975 91.4766 122.522L92.3866 122.108ZM79.5102 96.4321L80.3943 95.9647C75.3146 86.3565 71.7043 79.2709 69.5563 74.6975L68.6512 75.1226L67.746 75.5477C69.9154 80.1666 73.5444 87.2873 78.6262 96.8995L79.5102 96.4321ZM68.6512 75.1226L67.6745 74.9081C66.3413 80.9782 64.6072 86.933 62.4721 92.7727L63.4113 93.1161L64.3505 93.4595C66.5163 87.5357 68.2755 81.4948 69.6279 75.3371L68.6512 75.1226ZM63.4113 93.1161L63.0745 94.0577C67.5891 95.6721 71.6948 98.0303 75.396 101.136L76.0388 100.37L76.6816 99.604C72.8 96.347 68.4874 93.8693 63.748 92.1745L63.4113 93.1161ZM76.0388 100.37L75.396 101.136C76.0243 101.663 76.6611 102.251 77.3062 102.901L78.0157 102.196L78.7252 101.491C78.0418 100.803 77.3607 100.174 76.6816 99.604L76.0388 100.37ZM78.0157 102.196L77.3062 102.901L78.3025 103.904L79.012 103.199L79.7215 102.494L78.7252 101.491L78.0157 102.196Z" fill="black" mask="url(#path-1-outside-1_1_8)"/>
</svg>
